<?xml version="1.0" standalone="no"?>
<!DOCTYPE svg PUBLIC "-//W3C//DTD SVG 20010904//EN"
 "http://www.w3.org/TR/2001/REC-SVG-20010904/DTD/svg10.dtd">
<svg version="1.0" xmlns="http://www.w3.org/2000/svg"
 width="76.000000pt" height="57.000000pt" viewBox="0 0 76.000000 57.000000"
 preserveAspectRatio="xMidYMid meet">

<g transform="translate(0.000000,57.000000) scale(0.100000,-0.100000)"
fill="#000000" stroke="none">
<path d="M0 285 l0 -285 380 0 380 0 0 285 0 285 -380 0 -380 0 0 -285z m505
127 c-9 -9 -35 8 -35 24 0 16 2 16 20 -1 11 -10 18 -20 15 -23z m-58 2 c51
-16 89 -48 128 -107 23 -35 34 -34 42 3 3 17 9 30 14 30 15 0 10 -26 -11 -53
-11 -14 -20 -29 -20 -34 0 -4 -12 -21 -26 -38 -25 -29 -25 -29 -10 -3 20 34
20 58 2 84 -14 18 -16 18 -50 -16 -21 -21 -37 -49 -41 -71 -6 -33 -4 -37 20
-43 14 -4 31 -4 38 0 7 4 3 -3 -9 -15 -24 -26 -136 -46 -196 -36 -36 6 -54 -7
-25 -18 6 -3 -14 -6 -46 -6 -52 -1 -127 19 -127 34 0 3 10 1 21 -6 47 -25 189
22 235 78 12 14 29 23 39 21 15 -2 12 -9 -16 -36 l-34 -34 37 19 c20 10 36 20
36 23 -1 7 29 74 37 82 14 13 13 97 -1 109 -20 17 -158 49 -167 40 -5 -5 -6
-19 -2 -31 5 -17 13 -21 33 -17 24 5 25 4 9 -8 -9 -7 -17 -16 -17 -20 0 -17
43 -53 56 -48 14 5 44 -13 44 -27 0 -17 -52 -21 -69 -5 -25 21 -41 18 -80 -15
-45 -38 -54 -29 -13 13 35 36 45 84 15 72 -39 -16 -58 -16 -30 0 31 18 33 27
12 45 -12 10 -20 9 -40 -4 -13 -9 -28 -16 -32 -16 -4 0 0 5 10 11 9 6 15 14
12 19 -3 6 9 19 27 30 38 24 104 22 195 -6z m-273 -76 c-4 -6 -10 -25 -14 -42
-6 -26 -8 -28 -15 -13 -9 21 9 67 25 67 6 0 8 -5 4 -12z m181 -86 c-3 -3 -11
0 -18 7 -9 10 -8 11 6 5 10 -3 15 -9 12 -12z m325 14 c0 -3 -4 -8 -10 -11 -5
-3 -10 -1 -10 4 0 6 5 11 10 11 6 0 10 -2 10 -4z m-41 -65 c19 -19 19 -20 -5
-36 -13 -8 -36 -20 -52 -25 -23 -8 -24 -8 -9 3 42 28 62 50 50 54 -7 3 -13 9
-13 14 0 14 8 11 29 -10z m-408 -43 c12 -10 17 -18 11 -18 -13 0 -62 50 -62
64 0 6 7 2 15 -9 9 -11 25 -28 36 -37z m87 29 c28 1 29 -13 1 -22 -15 -5 -28
0 -43 15 -20 22 -20 22 -1 15 11 -5 30 -8 43 -8z"/>
<path d="M348 133 c7 -3 16 -2 19 1 4 3 -2 6 -13 5 -11 0 -14 -3 -6 -6z"/>
</g>
</svg>
